<svg width="925" height="925" viewBox="0 0 925 925" fill="none" xmlns="http://www.w3.org/2000/svg">
<path d="M290.116 337.653C290.116 292.48 253.364 255.733 208.192 255.733C163.023 255.733 126.273 292.48 126.273 337.653C126.273 382.827 163.023 419.573 208.192 419.573C253.364 419.573 290.116 382.827 290.116 337.653Z" fill="#74D0C7"/>
<path d="M462.931 0.720154C207.803 0.720154 0.97998 207.547 0.97998 462.667C0.97998 606.84 67.0333 735.56 170.513 820.28V633.853C170.513 624.053 178.459 579.36 188.261 579.36H189.584L193.941 457.16C145.239 450.214 107.664 408.253 107.664 357.653C107.664 302.227 152.761 257.133 208.192 257.133C238.451 257.133 265.605 270.587 284.051 291.8L420.633 428.387L423.307 353.387H427.379L430.285 184.747C430.285 182.08 431.809 179.64 434.209 178.467L518.751 139.4C521.351 138.147 524.483 139.214 525.748 141.814L725.617 341.694H819.903V371.227H834.203C842.416 371.227 849.841 374.587 855.195 380L924.681 449.48C917.697 200.454 713.645 0.720154 462.931 0.720154Z" fill="#74D0C7"/>
<path d="M636.936 662.773H698.406H640.33L694.24 495.2L705.624 459.813H652.267C622.307 459.813 597.618 437.48 593.784 408.573L549.271 405.053V400.747V396.453L593.784 392.933C597.615 364.027 622.307 341.693 652.267 341.693H725.618L525.748 141.813C527.014 144.413 525.931 147.547 523.334 148.813L444.24 189.12L447.15 353.387H451.22L455.872 483.867H457.196C466.998 483.867 474.944 528.573 474.944 538.373V924.467C528.548 923.093 579.87 912.573 627.435 894.427V672.28C627.435 667.027 631.688 662.773 636.936 662.773Z" fill="#5BAEA5"/>
<path d="M924.682 449.48L855.195 380C860.469 385.333 863.731 392.654 863.733 400.747C863.733 417.067 850.511 430.28 834.203 430.28H819.903V435.974V459.814H787.391L782.002 495.2L756.48 662.774H759.873C765.121 662.774 769.374 667.027 769.374 672.28V736.733H769.375V758.227H769.374V808.307C847.624 738.88 902.119 643.294 919.178 535.254C922.911 511.6 924.882 487.373 924.882 462.667C924.882 458.253 924.806 453.867 924.682 449.48Z" fill="#5BAEA5"/>
<path d="M518.751 139.4L434.208 178.467C431.81 179.64 430.286 182.08 430.286 184.747L427.379 353.387H447.15L444.242 189.12L523.334 148.814C525.931 147.547 527.014 144.414 525.748 141.814C524.484 139.214 521.351 138.147 518.751 139.4Z" fill="#407389"/>
<path d="M437.264 360.373C433.409 360.373 427.379 356.667 427.379 353.387H423.307L420.633 428.387L455.123 462.866L451.219 353.387H447.149C447.149 356.667 441.119 360.373 437.264 360.373Z" fill="#364E64"/>
<path d="M418.655 483.866H455.872L455.123 462.866L420.633 428.387L418.655 483.866Z" fill="#364E64"/>
<path d="M437.264 360.373C441.119 360.373 447.15 356.667 447.15 353.387H427.379C427.379 356.667 433.41 360.373 437.264 360.373Z" fill="#364E64"/>
<path d="M549.271 400.747V405.053L593.784 408.573C593.444 406 593.208 403.414 593.208 400.747H549.271Z" fill="#B7BFBF"/>
<path d="M593.784 392.933L549.271 396.453V400.747H593.208C593.208 398.093 593.444 395.493 593.784 392.933Z" fill="white"/>
<path d="M819.795 430.28V400.747H593.208C593.208 403.413 593.444 406 593.784 408.573C597.617 437.48 622.307 459.813 652.267 459.813H705.624H735.709H787.391H819.903V435.973V430.28H819.795Z" fill="#364E64"/>
<path d="M725.617 341.693H652.268C622.307 341.693 597.615 364.027 593.784 392.933C593.444 395.493 593.208 398.093 593.208 400.747H784.677H819.795V371.227H819.903V341.693H725.617Z" fill="#407389"/>
<path d="M834.203 371.227H819.795V400.747H863.732C863.731 392.653 860.47 385.333 855.195 380C849.842 374.587 842.416 371.227 834.203 371.227Z" fill="white"/>
<path d="M819.795 430.28H834.203C850.511 430.28 863.732 417.067 863.732 400.747H819.795V430.28Z" fill="#B7BFBF"/>
<path d="M418.655 483.867H417.332C407.529 483.867 399.584 528.574 399.584 538.374V920.28C411.996 921.987 424.557 923.2 437.264 923.894V483.867H418.655Z" fill="white"/>
<path d="M457.196 483.867H437.264V923.893C445.761 924.36 454.316 924.627 462.931 924.627C466.945 924.627 470.951 924.573 474.944 924.467V538.373C474.944 528.573 466.998 483.867 457.196 483.867Z" fill="white"/>
<mask id="mask0_8_661" style="mask-type:luminance" maskUnits="userSpaceOnUse" x="437" y="483" width="38" height="442">
<path d="M457.196 483.867H437.264V923.893C445.761 924.36 454.316 924.627 462.931 924.627C466.945 924.627 470.951 924.573 474.944 924.467V538.373C474.944 528.573 466.998 483.867 457.196 483.867Z" fill="white"/>
</mask>
<g mask="url(#mask0_8_661)">
<path d="M437.264 924.627H474.944V483.867H437.264V924.627Z" fill="#DFE1E4"/>
</g>
<path d="M627.435 758.227V736.733H698.405V662.773H636.936C631.688 662.773 627.435 667.027 627.435 672.28V894.427V876.187H669.013C679.023 871.187 688.824 865.827 698.405 860.147V758.227H627.435Z" fill="#407389"/>
<path d="M698.404 758.227V860.147C723.722 845.12 747.475 827.733 769.374 808.307V758.227H698.404Z" fill="#364E64"/>
<path d="M627.436 894.427C641.645 889.013 655.516 882.92 669.013 876.187H627.436V894.427Z" fill="#3C7F94"/>
<path d="M698.406 662.774V736.733H769.374V672.28C769.374 667.027 765.12 662.774 759.872 662.774H756.48H698.406Z" fill="#364E64"/>
<path d="M769.375 758.227V736.733H769.374V758.227H769.375Z" fill="#407389"/>
<path d="M627.436 736.733V758.227H698.404V736.733H627.436Z" fill="#3C7F94"/>
<path d="M698.404 736.733V758.227H769.374V736.733H698.404Z" fill="#407389"/>
<path d="M724.327 495.2H782.002L787.391 459.813H735.71L724.327 495.2Z" fill="#B7BFBF"/>
<path d="M694.24 495.2L640.33 662.773H670.415L724.327 495.2H694.24Z" fill="white"/>
<path d="M735.71 459.813H705.624L694.24 495.2H724.327L735.71 459.813Z" fill="white"/>
<path d="M735.71 459.813H705.624L694.24 495.2H724.327L735.71 459.813Z" fill="#DFE1E4"/>
<path d="M670.415 662.773H756.48L782.002 495.2H724.327L670.415 662.773Z" fill="white"/>
<path d="M782.002 499.2H724.327L670.415 666.773H756.48L782.002 499.2Z" fill="#DFE1E4"/>
<path d="M208.192 275.733C192.957 275.733 178.677 279.92 166.445 287.187C166.424 287.2 166.404 287.214 166.381 287.227C166.361 287.24 166.339 287.253 166.319 287.267C166.269 287.293 166.22 287.334 166.169 287.36C166.063 287.427 165.957 287.48 165.851 287.547C142.145 301.92 126.273 327.974 126.273 357.654C126.273 357.747 126.273 357.827 126.273 357.92C126.273 357.947 126.273 357.987 126.273 358.014C126.273 358.067 126.273 358.12 126.275 358.174C126.275 358.227 126.275 358.28 126.276 358.32C126.276 358.36 126.276 358.4 126.276 358.427C126.277 358.494 126.277 358.56 126.279 358.627C126.279 358.654 126.279 358.667 126.279 358.68C126.28 358.76 126.281 358.853 126.283 358.933C126.445 369.4 128.593 379.387 132.344 388.56L239.097 281.814C229.779 278 219.615 275.84 208.963 275.733C208.949 275.733 208.933 275.733 208.919 275.733C208.849 275.733 208.779 275.733 208.709 275.733C208.676 275.733 208.635 275.733 208.601 275.733C208.551 275.733 208.501 275.733 208.451 275.733C208.365 275.733 208.277 275.733 208.192 275.733Z" fill="#BAE7E0"/>
<path d="M202.763 439.4C202.821 439.4 202.879 439.4 202.936 439.414C202.876 439.4 202.823 439.4 202.763 439.4ZM202.595 439.387C202.6 439.387 202.604 439.387 202.609 439.387C202.607 439.387 202.597 439.387 202.595 439.387ZM271.183 409.973C256.143 428.053 233.488 439.573 208.192 439.573C206.428 439.573 204.68 439.52 202.943 439.414C204.679 439.52 206.429 439.573 208.192 439.573C233.488 439.573 256.144 428.053 271.183 409.973Z" fill="#F9F9F9"/>
<path d="M284.042 326.747L177.29 433.507C185.19 436.733 193.698 438.787 202.595 439.387C202.598 439.387 202.607 439.387 202.61 439.387C202.66 439.387 202.712 439.4 202.763 439.4C202.823 439.4 202.876 439.4 202.936 439.414C202.939 439.414 202.94 439.414 202.943 439.414C204.68 439.52 206.428 439.573 208.192 439.573C233.488 439.573 256.143 428.053 271.183 409.973C282.999 395.773 290.114 377.533 290.114 357.653C290.114 346.72 287.944 336.294 284.042 326.747Z" fill="#BAE7E0"/>
<path d="M239.098 281.814L132.344 388.56C140.667 408.907 156.94 425.187 177.29 433.507L284.042 326.747C275.719 306.4 259.447 290.134 239.098 281.814Z" fill="#97DCD2"/>
<path d="M228.125 579.36H208.193V848.053C220.363 856.12 232.933 863.613 245.872 870.52V633.853C245.872 624.053 237.927 579.36 228.125 579.36Z" fill="white"/>
<path d="M188.262 579.36C178.459 579.36 170.514 624.053 170.514 633.853V820.28C182.578 830.16 195.158 839.427 208.194 848.053V579.36H189.584H188.262Z" fill="white"/>
<path d="M308.723 357.653C308.723 408.253 271.15 450.214 222.444 457.16L226.8 579.36H228.126C237.927 579.36 245.872 624.053 245.872 633.853V870.52C292.86 895.573 344.683 912.747 399.584 920.28V538.373C399.584 528.573 407.53 483.867 417.332 483.867H418.655L420.634 428.387L284.051 291.8C299.398 309.453 308.723 332.48 308.723 357.653Z" fill="#5BAEA5"/>
<path d="M208.192 458.187C203.353 458.187 198.6 457.827 193.941 457.16L189.584 579.36H208.193H226.8L222.444 457.16C217.785 457.827 213.032 458.187 208.192 458.187Z" fill="#364E64"/>
<path d="M222.444 457.16C271.149 450.214 308.723 408.253 308.723 357.653C308.723 332.48 299.399 309.453 284.051 291.8C265.605 270.587 238.449 257.133 208.193 257.133C152.763 257.133 107.664 302.227 107.664 357.653C107.664 408.253 145.239 450.214 193.941 457.16C198.6 457.827 203.353 458.187 208.193 458.187C213.032 458.187 217.785 457.827 222.444 457.16ZM126.273 357.653C126.273 312.48 163.023 275.733 208.193 275.733C253.365 275.733 290.115 312.48 290.115 357.653C290.115 402.827 253.365 439.573 208.193 439.573C163.023 439.573 126.273 402.827 126.273 357.653Z" fill="#407389"/>
<path d="M228.125 579.36H208.193V848.053C220.363 856.12 232.933 863.613 245.872 870.52V633.853C245.872 624.053 237.927 579.36 228.125 579.36Z" fill="#DFE1E4"/>
</svg>
