<svg width="925" height="925" viewBox="0 0 925 925" fill="none" xmlns="http://www.w3.org/2000/svg">
<path d="M426.874 391.214V391.133H390.167H426.86L426.874 391.214Z" fill="#74D0C7"/>
<path d="M573.674 391.133H573.66V391.253L573.674 391.133Z" fill="#74D0C7"/>
<path d="M377.927 391.133V391.12H328.994V537.947H377.927V391.133Z" fill="white"/>
<path d="M622.62 537.947H671.558V391.13H622.62V537.947Z" fill="white"/>
<path d="M524.727 537.947H573.66V391.12H524.727V391.133V537.947Z" fill="white"/>
<path d="M426.874 537.947H475.807V391.133H426.874V391.214V537.947Z" fill="white"/>
<path d="M311.02 620.08H680.153C702.833 620.08 721.22 601.693 721.22 579.013H311.02L188.207 517.413H3.59351C5.23351 531.307 7.48684 545 10.3268 558.48H188.207L311.02 620.08Z" fill="#364E64"/>
<path d="M311.021 579.014H721.22C721.22 556.334 702.834 537.947 680.154 537.947H671.554H622.62H573.66H524.727H475.807H426.874H377.927H328.994H311.021L188.207 476.347H0.567139C0.967139 490.2 1.9937 503.894 3.5937 517.414H188.207L311.021 579.014Z" fill="#407389"/>
<path d="M426.874 537.947V391.214L426.86 391.133H390.167H377.927V537.947H426.874Z" fill="white"/>
<path d="M377.927 391.133V537.947H426.874V391.214L426.86 391.133H390.167H377.927Z" fill="#DFE1E4"/>
<path d="M475.807 537.947H524.721V391.133H475.807V537.947Z" fill="white"/>
<path d="M475.807 537.947H524.721V391.133H475.807V537.947Z" fill="#DFE1E4"/>
<path d="M573.66 537.947H622.62V391.133H599.14H573.674L573.66 391.254V537.947Z" fill="white"/>
<path d="M622.62 391.133H599.14H573.674L573.66 391.254V537.947H622.62V391.133Z" fill="#DFE1E4"/>
<path d="M414.3 329.907H599.154C681.474 329.907 681.474 241 652.541 212.907C652.541 242.4 628.634 266.307 599.154 266.307H435.781C376.807 266.307 328.994 314.12 328.994 373.107C328.994 373.107 355.314 329.907 414.3 329.907Z" fill="white"/>
<path d="M701.647 274.907C701.647 272.88 701.527 270.84 701.354 268.8C701.3 268.2 701.194 267.6 701.127 266.987C700.954 265.52 700.767 264.053 700.514 262.6C700.394 261.96 700.26 261.32 700.127 260.68C699.82 259.213 699.487 257.747 699.1 256.293C698.954 255.747 698.807 255.2 698.647 254.667C698.167 253.013 697.634 251.387 697.034 249.787C696.914 249.467 696.807 249.147 696.687 248.827C693.567 240.693 689.047 233.187 683.367 227.16V227.147C679.594 223.16 675.314 219.853 670.607 217.413C670.074 217.133 669.54 216.853 668.994 216.587C668.22 216.24 667.447 215.92 666.66 215.613C665.887 215.32 665.127 215.053 664.341 214.8C663.647 214.573 662.954 214.36 662.247 214.187C661.261 213.933 660.26 213.733 659.26 213.56C658.674 213.453 658.114 213.333 657.527 213.253C655.887 213.04 654.234 212.907 652.541 212.907C681.474 241 681.474 329.907 599.154 329.907H414.3C355.314 329.907 328.994 373.107 328.994 373.107H599.141C658.127 373.107 701.647 333.88 701.647 274.907Z" fill="white"/>
<path d="M652.541 212.907C663.314 223.36 670.061 242.227 670.074 261.813C670.074 294.853 650.847 329.907 599.154 329.907H414.3C355.314 329.907 328.994 373.107 328.994 373.107H599.141C658.127 373.107 701.647 333.88 701.647 274.907C701.647 272.88 701.527 270.84 701.354 268.8C701.3 268.2 701.194 267.6 701.127 266.987C700.954 265.52 700.767 264.053 700.514 262.6C700.394 261.96 700.26 261.32 700.127 260.68C699.82 259.213 699.487 257.747 699.1 256.293C698.954 255.747 698.807 255.2 698.647 254.667C698.167 253.013 697.634 251.387 697.034 249.787C696.914 249.467 696.807 249.147 696.687 248.827C693.567 240.693 689.047 233.187 683.367 227.16V227.147C679.594 223.16 675.314 219.853 670.607 217.413C670.074 217.133 669.54 216.853 668.994 216.587C668.22 216.24 667.447 215.92 666.66 215.613C665.887 215.32 665.127 215.053 664.341 214.8C663.647 214.573 662.954 214.36 662.247 214.187C661.261 213.933 660.26 213.733 659.26 213.56C658.674 213.453 658.114 213.333 657.527 213.253C655.887 213.04 654.234 212.907 652.541 212.907Z" fill="#DFE1E4"/>
<path d="M683.367 227.16C689.047 233.187 693.567 240.693 696.687 248.827C696.807 249.147 696.914 249.467 697.034 249.787C697.634 251.387 698.167 253.013 698.647 254.667C698.807 255.2 698.954 255.747 699.1 256.293C699.487 257.747 699.82 259.213 700.127 260.68C700.26 261.32 700.394 261.96 700.514 262.6C700.767 264.053 700.954 265.52 701.127 266.987C701.194 267.6 701.3 268.2 701.353 268.8C701.527 270.84 701.647 272.88 701.647 274.907C701.647 333.88 658.127 373.107 599.14 373.107H328.994L347.007 391.12H377.927V391.133H390.167H426.874H475.807H524.727V391.12H573.66V391.133H573.674H599.14H622.62H671.553V537.947H680.153C702.833 537.947 721.22 556.333 721.22 579.013C721.22 601.693 702.833 620.08 680.153 620.08H311.02L188.207 558.48H10.3269C54.4469 767.627 240.02 924.627 462.3 924.627C715.674 924.627 921.367 720.613 924.18 467.907L683.394 227.12L683.367 227.16Z" fill="#5BAEA5"/>
<path d="M462.301 0.720215C207.167 0.720215 0.354004 207.547 0.354004 462.667C0.354004 467.253 0.433952 471.8 0.567285 476.347H188.207L311.021 537.947H328.994V391.133V391.12H347.007L328.994 373.107C328.994 314.12 376.807 266.307 435.781 266.307H599.154C628.634 266.307 652.541 242.4 652.541 212.907C654.234 212.907 655.9 213.04 657.527 213.254C658.114 213.334 658.674 213.454 659.26 213.56C660.26 213.734 661.261 213.92 662.247 214.187C662.954 214.36 663.647 214.574 664.341 214.8C665.127 215.054 665.887 215.32 666.66 215.614C667.447 215.92 668.221 216.24 668.994 216.587C669.541 216.854 670.074 217.134 670.607 217.414C675.314 219.854 679.594 223.16 683.367 227.147V227.16L683.394 227.12L924.181 467.907C924.207 466.16 924.247 464.427 924.247 462.667C924.247 207.547 717.434 0.720215 462.301 0.720215Z" fill="#74D0C7"/>
</svg>
