<svg width="925" height="925" viewBox="0 0 925 925" fill="none" xmlns="http://www.w3.org/2000/svg">
<path d="M349.38 605.613L349.14 605.427L325.061 616.347L325.127 616.52L325.154 616.587L349.38 605.613Z" fill="#FABC5C"/>
<path d="M353.167 608.267C384.02 629.813 421.46 642.547 461.847 642.653V589.373V356.32C416.327 356.08 377.834 326.093 364.847 284.8H353.874C336.647 303.173 307.78 325.493 270.567 323.107C260.714 326.72 251.74 332.52 244.194 340.227C231.087 353.64 223.86 371.36 223.86 390.133C223.86 408.907 231.087 426.627 244.194 440.04C251.887 447.893 261.087 453.773 271.154 457.373C273.074 518.053 303.354 571.68 349.14 605.427L349.38 605.613C350.62 606.52 351.9 607.387 353.167 608.267Z" fill="white"/>
<path d="M570.901 284.8H559.927C546.887 326.253 508.154 356.333 462.394 356.333C462.207 356.333 462.034 356.32 461.847 356.32V589.373V642.653H462.367C502.967 642.653 540.621 629.907 571.621 608.253C572.901 607.36 574.194 606.48 575.447 605.56C621.34 571.827 651.714 518.12 653.621 457.373C663.674 453.773 672.887 447.893 680.58 440.04C693.7 426.627 700.914 408.907 700.914 390.133C700.914 371.36 693.7 353.64 680.58 340.227C673.034 332.507 664.047 326.733 654.167 323.107C616.981 325.48 588.127 303.173 570.901 284.8Z" fill="#EBEAED"/>
<path d="M461.847 151.853V88.5469H387.62C323.327 88.5469 271.007 149.467 271.007 213.76V238.8H361.287C368.634 189.76 410.82 152.107 461.847 151.853Z" fill="#407389"/>
<path d="M462.381 151.84C513.66 151.84 556.114 189.587 563.487 238.8H653.767V261.8V213.76C653.767 149.467 600.847 88.5469 536.541 88.5469H461.847V151.853C462.034 151.853 462.207 151.84 462.381 151.84Z" fill="#364E64"/>
<path d="M353.874 284.8H271.007L270.994 322.907C270.821 322.974 270.647 323.027 270.487 323.107H270.567C307.781 325.494 336.647 303.173 353.874 284.8Z" fill="#407389"/>
<path d="M653.767 284.8H570.9C588.127 303.173 616.98 325.48 654.167 323.107H654.287C654.127 323.027 653.954 322.973 653.78 322.907V261.8H653.767V284.8Z" fill="#364E64"/>
<path d="M361.287 238.8H271.007V284.8H364.847C361.793 275.107 360.14 264.787 360.14 254.08C360.14 248.894 360.54 243.787 361.287 238.8Z" fill="#D9DBDE"/>
<path d="M559.927 284.8H653.767V238.8H563.487C564.234 243.787 564.634 248.894 564.634 254.08C564.634 264.787 562.981 275.107 559.927 284.8Z" fill="#C2C6CE"/>
<path d="M516.007 254.08C516.007 224.507 491.954 200.453 462.394 200.453H461.847C432.527 200.747 408.767 224.694 408.767 254.08C408.767 283.467 432.527 307.427 461.847 307.707H462.394C491.954 307.707 516.007 283.654 516.007 254.08Z" fill="white"/>
<path d="M461.847 151.853C410.821 152.107 368.634 189.76 361.287 238.8C360.541 243.787 360.141 248.894 360.141 254.08C360.141 264.787 361.794 275.107 364.847 284.8C377.834 326.093 416.327 356.08 461.847 356.32V353.72V330.694V307.707C432.527 307.427 408.767 283.467 408.767 254.08C408.767 224.694 432.527 200.747 461.847 200.453V177.467V154.453V151.853Z" fill="#D9DBDE"/>
<path d="M563.487 238.8C556.114 189.587 513.661 151.84 462.381 151.84C462.207 151.84 462.034 151.853 461.847 151.853V154.453V177.467V200.453H462.381C491.954 200.453 516.007 224.507 516.007 254.08C516.007 283.653 491.954 307.707 462.381 307.707H461.847V330.693V353.72V356.32C462.034 356.32 462.207 356.333 462.381 356.333C508.154 356.333 546.887 326.253 559.927 284.8C562.981 275.107 564.634 264.787 564.634 254.08C564.634 248.893 564.234 243.787 563.487 238.8Z" fill="#C2C6CE"/>
<path d="M755.154 686.96L600.181 616.773L575.447 605.56C574.194 606.48 572.901 607.36 571.621 608.253L529.567 714.253L462.927 882.253V924.614C532.861 924.534 599.14 908.893 658.527 881C717.22 853.427 769.181 813.893 811.234 765.493C807.967 731.387 786.794 701.28 755.154 686.96Z" fill="#EBEAED"/>
<path d="M462.394 924.627C462.567 924.627 462.754 924.613 462.927 924.613V882.253L462.447 882.333L462.287 882.373L460.874 882.64L461.621 882.333L461.847 882.253L395.207 714.253L353.167 608.267C351.901 607.387 350.621 606.52 349.381 605.613L325.154 616.587L325.127 616.52L169.607 686.96C137.981 701.28 116.807 731.387 113.541 765.493C198.234 862.973 323.114 924.627 462.394 924.627Z" fill="white"/>
<path d="M385.167 688.933L395.207 714.253L461.847 882.253L461.62 882.333H461.847V882.253V763.147V714.253C433.114 714.253 406.594 704.84 385.167 688.933Z" fill="#EBEAED"/>
<path d="M540.087 687.747C518.394 704.36 491.287 714.253 461.847 714.253V763.147V882.253V882.333H462.167H462.447L462.927 882.253L529.567 714.253L540.087 687.747Z" fill="#D9DBDE"/>
<path d="M353.167 608.266L385.167 688.933C406.594 704.84 433.114 714.253 461.847 714.253V642.653C421.46 642.547 384.02 629.813 353.167 608.266Z" fill="#D9DBDE"/>
<path d="M462.367 642.653H461.847V714.253C491.287 714.253 518.394 704.36 540.087 687.76L571.621 608.253C540.621 629.907 502.967 642.653 462.367 642.653Z" fill="#C2C6CE"/>
<path d="M462.38 0.719955C207.26 0.719955 0.433594 207.547 0.433594 462.667C0.433594 578.52 43.0869 684.413 113.54 765.493C116.807 731.387 137.98 701.28 169.62 686.96L325.127 616.52L325.06 616.347L349.14 605.427C303.354 571.68 273.074 518.053 271.154 457.373C261.087 453.773 251.887 447.893 244.194 440.04C231.087 426.627 223.86 408.907 223.86 390.133C223.86 371.36 231.087 353.64 244.194 340.227C251.74 332.52 260.714 326.72 270.567 323.107H270.487C270.647 323.027 270.82 322.973 270.994 322.907V261.8H271.007V238.8V213.76C271.007 149.467 323.327 88.5468 387.62 88.5468H461.847H536.54C562.834 88.5468 587.207 98.7334 606.847 115.16C612.674 120.027 618.087 125.44 623.007 131.32L923.274 431.587C907.274 190.96 707.06 0.719955 462.38 0.719955Z" fill="#74D0C7"/>
<path d="M623.007 131.32C642.074 154.067 653.767 183.533 653.767 213.76V261.8H653.78V322.907C653.954 322.973 654.127 323.027 654.287 323.107H654.167C664.047 326.733 673.034 332.507 680.58 340.227C693.7 353.64 700.914 371.36 700.914 390.133C700.914 408.907 693.7 426.627 680.58 440.04C672.887 447.893 663.674 453.773 653.62 457.373C651.714 518.12 621.34 571.827 575.447 605.56L600.18 616.773L755.154 686.96C786.794 701.28 807.967 731.387 811.234 765.493C881.687 684.413 924.34 578.52 924.34 462.667C924.34 452.227 923.954 441.853 923.274 431.587L623.007 131.32Z" fill="#5BAEA5"/>
</svg>
