<svg width="925" height="925" viewBox="0 0 925 925" fill="none" xmlns="http://www.w3.org/2000/svg">
<path d="M737.38 325.627C737.38 274.587 727.14 233.387 702.647 204.867C699.087 200.734 695.234 196.88 691.06 193.294L690.86 193.094H690.847C671.7 176.654 645.967 166.014 612.42 162.054C563.327 156.28 522.154 165.347 495.527 174.4C519.18 203.267 526.58 234.627 526.58 234.627C506.687 213.654 462.847 188.494 462.847 188.494C462.847 188.494 442.341 176.427 408.407 168.067C419.461 261.134 467.714 468.68 677.714 510.72C693.047 434.187 703.007 360.094 703.007 325.627C703.007 280.147 694.354 247.974 676.567 227.28C674.18 224.494 671.501 221.827 668.607 219.334L668.06 218.854C653.78 206.694 634.22 199.24 608.394 196.2C587.367 193.734 566.021 194.174 544.941 197.507C540.247 198.24 535.847 195.054 535.114 190.36C534.367 185.667 537.567 181.267 542.26 180.52C564.887 176.947 587.821 176.467 610.407 179.134C639.714 182.587 662.26 191.334 679.367 205.907L679.86 206.334C683.38 209.36 686.661 212.654 689.607 216.08C710.181 240.027 720.194 275.867 720.194 325.627C720.194 360.814 710.14 436.08 694.62 513.667C700.234 514.52 705.914 515.28 711.741 515.907C727.394 437.52 737.38 361.96 737.38 325.627Z" fill="white"/>
<path d="M188.3 325.627C188.3 233.107 221.86 172.827 313.274 162.053C400.594 151.773 462.847 188.493 462.847 188.493C462.847 188.493 506.687 213.653 526.58 234.627C526.58 234.627 519.18 203.267 495.527 174.4C522.154 165.347 563.327 156.28 612.42 162.053C645.967 166.013 671.7 176.653 690.847 193.093H690.86L691.06 193.293C695.234 196.88 699.087 200.733 702.647 204.867L923.3 425.533C904.394 187.773 705.474 0.719993 462.847 0.719993C207.714 0.719993 0.900391 207.547 0.900391 462.667C0.900391 717.8 207.714 924.627 462.847 924.627C463.06 924.627 463.274 924.613 463.474 924.613L299.7 760.84C244.954 721.04 188.3 412.133 188.3 325.627Z" fill="#74D0C7"/>
<path d="M923.3 425.533L702.647 204.867C727.14 233.387 737.38 274.587 737.38 325.627C737.38 418.147 672.594 765.093 614.607 765.093C579.54 765.093 568.18 685.333 542.42 622.293C523.62 657.347 492.687 704.814 462.847 704.814C433.007 704.814 402.06 657.347 383.274 622.293C357.514 685.333 346.14 765.093 311.074 765.093C307.314 765.093 303.514 763.6 299.7 760.84L463.474 924.614C718.314 924.267 924.793 717.587 924.793 462.667C924.793 450.16 924.273 437.787 923.3 425.533Z" fill="#5BAEA5"/>
<path d="M462.847 547.013C423.087 547.013 400.101 581.08 383.274 622.293C402.061 657.347 433.007 704.813 462.847 704.813C492.674 704.813 523.621 657.347 542.421 622.293C525.581 581.08 502.607 547.013 462.847 547.013Z" fill="#C2C6CE"/>
<path d="M408.407 168.067C383.167 161.84 350.514 157.667 313.274 162.053C221.861 172.827 188.301 233.107 188.301 325.627C188.301 412.134 244.954 721.04 299.701 760.84C303.514 763.6 307.314 765.094 311.074 765.094C346.141 765.094 357.514 685.334 383.274 622.294C400.101 581.08 423.087 547.014 462.847 547.014C502.607 547.014 525.581 581.08 542.421 622.294C568.181 685.334 579.541 765.094 614.607 765.094C649.821 765.094 687.541 637.133 711.741 515.907C472.807 490.56 420.034 265.96 408.407 168.067Z" fill="white"/>
<path d="M581.447 160.24C581.434 160.24 581.42 160.24 581.394 160.24C546.514 160.254 517.194 167.134 496.434 174.094C496.127 174.2 495.82 174.307 495.527 174.4C519.18 203.267 526.58 234.627 526.58 234.627C506.687 213.654 462.847 188.494 462.847 188.494C462.847 188.494 442.341 176.427 408.407 168.067C408.421 168.16 408.434 168.254 408.447 168.347V168.36C408.447 168.44 408.461 168.534 408.474 168.627C408.474 168.667 408.487 168.707 408.487 168.747C408.501 168.8 408.5 168.854 408.514 168.907C408.514 168.974 408.527 169.054 408.541 169.12C408.541 169.134 408.541 169.147 408.541 169.16C408.554 169.254 408.554 169.334 408.567 169.427C408.567 169.427 408.567 169.427 408.567 169.44C419.94 263.16 468.74 468.88 677.714 510.72C693.047 434.187 703.007 360.094 703.007 325.627C703.007 280.147 694.354 247.974 676.567 227.28C674.18 224.494 671.501 221.827 668.607 219.334L668.06 218.854C653.78 206.694 634.22 199.24 608.394 196.2C599.46 195.147 590.46 194.627 581.447 194.627C569.26 194.627 557.061 195.587 544.941 197.507C544.487 197.574 544.047 197.614 543.607 197.614C539.434 197.614 535.78 194.6 535.114 190.36C535.034 189.907 535.007 189.44 535.007 189C535.007 184.84 538.02 181.2 542.26 180.52C555.26 178.467 568.367 177.44 581.46 177.44C591.14 177.44 600.807 178 610.407 179.134C639.714 182.587 662.26 191.334 679.367 205.907L679.86 206.334C683.38 209.36 686.661 212.654 689.607 216.08C710.181 240.027 720.194 275.867 720.194 325.627C720.194 360.814 710.14 436.08 694.62 513.667C700.234 514.52 705.914 515.28 711.741 515.907C726.847 440.28 736.674 367.267 737.354 329.6C737.354 329.52 737.354 329.454 737.354 329.374V329.36C737.354 329.294 737.354 329.227 737.354 329.16V329.134C737.354 329.054 737.354 328.987 737.354 328.92C737.367 328.76 737.367 328.614 737.367 328.467C737.367 328.387 737.367 328.32 737.367 328.24C737.367 328.24 737.367 328.24 737.367 328.227C737.367 328.094 737.367 327.947 737.38 327.8C737.38 327.8 737.38 327.787 737.38 327.774C737.38 327.707 737.38 327.64 737.38 327.574C737.38 327.507 737.38 327.44 737.38 327.374C737.38 327.36 737.38 327.347 737.38 327.334C737.38 327.267 737.38 327.2 737.38 327.134C737.38 327.067 737.38 327 737.38 326.947C737.38 326.92 737.38 326.907 737.38 326.894C737.38 326.76 737.38 326.64 737.38 326.507C737.38 326.494 737.38 326.48 737.38 326.467C737.38 326.4 737.38 326.347 737.38 326.28C737.38 326.267 737.38 326.267 737.38 326.24C737.38 326.187 737.38 326.12 737.38 326.067C737.38 326.054 737.38 326.054 737.38 326.04C737.38 325.974 737.38 325.907 737.38 325.854C737.38 325.84 737.38 325.827 737.38 325.827C737.38 325.747 737.38 325.694 737.38 325.627C737.38 274.587 727.14 233.387 702.647 204.867C699.087 200.734 695.234 196.88 691.06 193.294L690.86 193.094H690.847C671.7 176.654 645.967 166.014 612.42 162.054C601.7 160.8 591.367 160.24 581.474 160.24C581.461 160.24 581.46 160.24 581.447 160.24Z" fill="#DFE1E4"/>
<path d="M737.354 329.133V329.16C737.354 329.16 737.354 329.147 737.354 329.133ZM737.38 326.24C737.38 326.267 737.38 326.267 737.38 326.28C737.38 326.267 737.38 326.253 737.38 326.24Z" fill="#8FBBB8"/>
<path d="M408.447 168.36C408.447 168.454 408.461 168.534 408.474 168.627C408.461 168.534 408.447 168.44 408.447 168.36Z" fill="#DFE1E4"/>
<path d="M654.3 611.48C653.06 616.067 655.767 620.787 660.354 622.027C661.101 622.227 661.861 622.32 662.607 622.32C666.394 622.32 669.86 619.8 670.9 615.96C679.62 583.667 687.674 548.427 694.621 513.667C688.874 512.787 683.234 511.813 677.714 510.72C670.847 544.92 662.914 579.627 654.3 611.48Z" fill="#EBEAED"/>
<path d="M689.607 216.08C686.661 212.654 683.38 209.36 679.86 206.333L679.367 205.907C662.26 191.334 639.714 182.587 610.407 179.133C587.821 176.48 564.887 176.947 542.26 180.52C537.567 181.267 534.367 185.667 535.114 190.36C535.847 195.054 540.247 198.227 544.941 197.507C566.021 194.174 587.367 193.733 608.407 196.2C634.221 199.24 653.78 206.693 668.06 218.853L668.607 219.333C671.501 221.827 674.18 224.494 676.567 227.28C694.354 247.974 703.007 280.147 703.007 325.627C703.007 360.094 693.047 434.187 677.714 510.72C683.234 511.813 688.874 512.787 694.62 513.667C710.14 436.08 720.194 360.814 720.194 325.627C720.194 275.867 710.181 240.027 689.607 216.08Z" fill="white"/>
</svg>
